fd_7_states
version=1
nRows=47
nColumns=17
inDegrees=yes

# SIMM Motion File Header:
name fd_7_states
datacolumns 17
datarows 47
otherdata 1
range 0.510067 0.549145
endheader
time	/jointset/r_shoulder/r_shoulder_elev/value	/jointset/r_shoulder/r_shoulder_elev/speed	/jointset/r_elbow/r_elbow_flex/value	/jointset/r_elbow/r_elbow_flex/speed	/forceset/TRIlong/activation	/forceset/TRIlong/fiber_length	/forceset/TRIlat/activation	/forceset/TRIlat/fiber_length	/forceset/TRImed/activation	/forceset/TRImed/fiber_length	/forceset/BIClong/activation	/forceset/BIClong/fiber_length	/forceset/BICshort/activation	/forceset/BICshort/fiber_length	/forceset/BRA/activation	/forceset/BRA/fiber_length
      0.510067	     -1.653122	     56.973122	    136.347592	    -46.527980	      0.454471	      0.182475	      0.833587	      0.117772	      0.832763	      0.112870	      0.468163	      0.059672	      0.320089	      0.058547	      0.308545	      0.049106
      0.510300	     -1.640039	     55.744749	    136.336437	    -49.582694	      0.451507	      0.182492	      0.827915	      0.117769	      0.827823	      0.112867	      0.478270	      0.059670	      0.335814	      0.058544	      0.306939	      0.049107
      0.511460	     -1.578836	     49.766224	    136.270228	    -64.354201	      0.437147	      0.182571	      0.800782	      0.117758	      0.804147	      0.112856	      0.524442	      0.059646	      0.404915	      0.058510	      0.299101	      0.049118
      0.513031	     -1.506718	     42.125985	    136.154496	    -82.584664	      0.418852	      0.182662	      0.767037	      0.117752	      0.774606	      0.112848	      0.577532	      0.059595	      0.479996	      0.058431	      0.288974	      0.049144
      0.514751	     -1.441019	     34.394515	    135.997355	    -99.625520	      0.400198	      0.182740	      0.733563	      0.117750	      0.745199	      0.112842	      0.626248	      0.059530	      0.545827	      0.058334	      0.278481	      0.049192
      0.516471	     -1.388025	     27.352992	    135.813808	   -113.255541	      0.382837	      0.182799	      0.703235	      0.117750	      0.718473	      0.112835	      0.667487	      0.059467	      0.599771	      0.058251	      0.268562	      0.049259
      0.518190	     -1.346543	     21.005238	    135.609866	   -123.334030	      0.366643	      0.182841	      0.675649	      0.117746	      0.694099	      0.112825	      0.702875	      0.059414	      0.644994	      0.058193	      0.259172	      0.049339
      0.519910	     -1.315395	     15.329840	    135.391663	   -129.847994	      0.351507	      0.182869	      0.650468	      0.117738	      0.671800	      0.112809	      0.733558	      0.059373	      0.683522	      0.058163	      0.250272	      0.049428
      0.519963	     -1.314597	     15.167272	    135.384863	   -129.991312	      0.351062	      0.182869	      0.649736	      0.117738	      0.671151	      0.112808	      0.734428	      0.059372	      0.684606	      0.058163	      0.250008	      0.049431
      0.519990	     -1.314181	     15.082184	    135.381290	   -130.065260	      0.350829	      0.182870	      0.649353	      0.117738	      0.670812	      0.112808	      0.734883	      0.059372	      0.685172	      0.058163	      0.249870	      0.049432
      0.520002	     -1.313996	     15.044160	    135.379691	   -130.098068	      0.350787	      0.182870	      0.649215	      0.117738	      0.670691	      0.112808	      0.735028	      0.059371	      0.685364	      0.058163	      0.249809	      0.049433
      0.520011	     -1.313859	     15.015988	    135.378505	   -130.122281	      0.351302	      0.182870	      0.649400	      0.117738	      0.670862	      0.112808	      0.734793	      0.059371	      0.685157	      0.058163	      0.249766	      0.049433
      0.520021	     -1.313722	     14.987834	    135.377319	   -130.146397	      0.351877	      0.182870	      0.649617	      0.117738	      0.671061	      0.112808	      0.734532	      0.059371	      0.684925	      0.058163	      0.249722	      0.049434
      0.520066	     -1.313042	     14.847327	    135.371385	   -130.265549	      0.354738	      0.182871	      0.650698	      0.117737	      0.672054	      0.112807	      0.733230	      0.059370	      0.683770	      0.058162	      0.249507	      0.049436
      0.520294	     -1.309738	     14.151123	    135.341635	   -130.826581	      0.368689	      0.182872	      0.656034	      0.117735	      0.676961	      0.112804	      0.726778	      0.059366	      0.678042	      0.058161	      0.248436	      0.049448
      0.521433	     -1.295542	     10.798556	    135.191296	   -132.876284	      0.430786	      0.182861	      0.681144	      0.117716	      0.700100	      0.112780	      0.695929	      0.059361	      0.650586	      0.058168	      0.243186	      0.049510
      0.522573	     -1.285085	      7.567112	    135.039202	   -133.971478	      0.482929	      0.182817	      0.703898	      0.117682	      0.721143	      0.112742	      0.667249	      0.059369	      0.624960	      0.058193	      0.238109	      0.049572
      0.524260	     -1.276334	      2.791194	    134.812501	   -134.600768	      0.547092	      0.182710	      0.733912	      0.117612	      0.749005	      0.112669	      0.628302	      0.059403	      0.590007	      0.058269	      0.230893	      0.049666
      0.525948	     -1.275754	     -2.139356	    134.585142	   -134.895387	      0.599900	      0.182578	      0.760219	      0.117527	      0.773514	      0.112583	      0.593040	      0.059472	      0.558208	      0.058397	      0.224017	      0.049760
      0.527635	     -1.283693	     -7.314930	    134.357013	   -135.626202	      0.644320	      0.182435	      0.783421	      0.117431	      0.795196	      0.112488	      0.560972	      0.059586	      0.529160	      0.058571	      0.217458	      0.049854
      0.529322	     -1.300599	    -12.770735	    134.126868	   -137.363890	      0.682271	      0.182288	      0.803991	      0.117331	      0.814468	      0.112389	      0.531690	      0.059751	      0.502529	      0.058773	      0.211197	      0.049949
      0.529605	     -1.304341	    -13.712724	    134.087985	   -137.782079	      0.688095	      0.182263	      0.807207	      0.117313	      0.817485	      0.112372	      0.527033	      0.059784	      0.498284	      0.058808	      0.210177	      0.049965
      0.529942	     -1.309149	    -14.845547	    134.041495	   -138.332825	      0.694853	      0.182233	      0.810959	      0.117293	      0.821005	      0.112352	      0.521571	      0.059824	      0.493302	      0.058851	      0.208970	      0.049984
      0.529986	     -1.309816	    -14.996654	    134.035314	   -138.410247	      0.695736	      0.182229	      0.811450	      0.117290	      0.821466	      0.112349	      0.520854	      0.059830	      0.492648	      0.058856	      0.208811	      0.049986
      0.530004	     -1.310086	    -15.057394	    134.032831	   -138.441632	      0.695996	      0.182228	      0.811647	      0.117289	      0.821651	      0.112348	      0.520636	      0.059832	      0.492389	      0.058858	      0.208747	      0.049987
      0.530018	     -1.310297	    -15.104862	    134.030891	   -138.466263	      0.695665	      0.182226	      0.811801	      0.117288	      0.821795	      0.112347	      0.521090	      0.059834	      0.492209	      0.058860	      0.208693	      0.049988
      0.530032	     -1.310509	    -15.152349	    134.028950	   -138.490995	      0.695300	      0.182225	      0.811954	      0.117287	      0.821939	      0.112347	      0.521614	      0.059836	      0.492031	      0.058862	      0.208640	      0.049989
      0.530102	     -1.311579	    -15.390058	    134.019243	   -138.616132	      0.693479	      0.182219	      0.812719	      0.117283	      0.822658	      0.112342	      0.524216	      0.059844	      0.491143	      0.058871	      0.208371	      0.049993
      0.530453	     -1.317179	    -16.584073	    133.970571	   -139.275123	      0.684495	      0.182190	      0.816491	      0.117262	      0.826199	      0.112321	      0.536905	      0.059881	      0.486744	      0.058915	      0.207037	      0.050013
      0.531670	     -1.339902	    -20.751186	    133.799511	   -141.866808	      0.654766	      0.182105	      0.828929	      0.117186	      0.837888	      0.112248	      0.577229	      0.059976	      0.471995	      0.059068	      0.202499	      0.050083
      0.533244	     -1.376744	    -26.018337	    133.573314	   -145.538076	      0.619434	      0.182020	      0.843609	      0.117089	      0.851703	      0.112153	      0.622186	      0.060063	      0.454073	      0.059267	      0.196847	      0.050176
      0.535451	     -1.441855	    -32.863262	    133.246472	   -150.604653	      0.575025	      0.181923	      0.861851	      0.116951	      0.868898	      0.112019	      0.674731	      0.060160	      0.430921	      0.059549	      0.189308	      0.050310
      0.537658	     -1.521160	    -38.853868	    132.909091	   -155.010066	      0.535687	      0.181835	      0.877750	      0.116812	      0.883909	      0.111884	      0.718018	      0.060250	      0.409809	      0.059837	      0.182190	      0.050448
      0.538491	     -1.554380	    -40.869407	    132.779343	   -156.422958	      0.521982	      0.181801	      0.883218	      0.116760	      0.889076	      0.111833	      0.732431	      0.060284	      0.402316	      0.059948	      0.179605	      0.050502
      0.539258	     -1.586424	    -42.604312	    132.658822	   -157.586373	      0.509861	      0.181769	      0.888019	      0.116712	      0.893616	      0.111786	      0.744903	      0.060316	      0.395629	      0.060050	      0.177271	      0.050551
      0.539872	     -1.612977	    -43.907685	    132.561840	   -158.416927	      0.500498	      0.181742	      0.891703	      0.116673	      0.897100	      0.111748	      0.754361	      0.060343	      0.390424	      0.060132	      0.175437	      0.050591
      0.539980	     -1.617712	    -44.128467	    132.544793	   -158.553153	      0.498886	      0.181737	      0.892335	      0.116667	      0.897698	      0.111742	      0.755974	      0.060348	      0.389525	      0.060147	      0.175118	      0.050598
      0.540007	     -1.618899	    -44.183309	    132.540529	   -158.586771	      0.498494	      0.181736	      0.892492	      0.116665	      0.897847	      0.111740	      0.756244	      0.060349	      0.389296	      0.060150	      0.175039	      0.050600
      0.540034	     -1.620088	    -44.238008	    132.536264	   -158.620214	      0.498189	      0.181735	      0.892649	      0.116663	      0.897995	      0.111738	      0.755506	      0.060350	      0.389030	      0.060154	      0.174959	      0.050602
      0.540060	     -1.621278	    -44.292567	    132.531998	   -158.653482	      0.497891	      0.181734	      0.892806	      0.116661	      0.898144	      0.111737	      0.754699	      0.060351	      0.388761	      0.060157	      0.174880	      0.050603
      0.540195	     -1.627252	    -44.563258	    132.510656	   -158.817269	      0.496405	      0.181728	      0.893587	      0.116653	      0.898882	      0.111729	      0.750687	      0.060357	      0.387422	      0.060176	      0.174484	      0.050612
      0.540867	     -1.657653	    -45.865623	    132.403627	   -159.578150	      0.489106	      0.181697	      0.897398	      0.116611	      0.902489	      0.111687	      0.731166	      0.060394	      0.380836	      0.060268	      0.172522	      0.050656
      0.542708	     -1.745097	    -49.039282	    132.108170	   -161.340300	      0.470179	      0.181604	      0.907099	      0.116495	      0.911675	      0.111575	      0.681922	      0.060551	      0.363683	      0.060525	      0.167314	      0.050777
      0.544317	     -1.825969	    -51.427721	    131.847362	   -162.866157	      0.454806	      0.181512	      0.914773	      0.116395	      0.918946	      0.111476	      0.643326	      0.060771	      0.349668	      0.060755	      0.162950	      0.050885
      0.545926	     -1.910460	    -53.552347	    131.583795	   -164.836186	      0.440422	      0.181413	      0.921773	      0.116295	      0.925583	      0.111378	      0.608284	      0.061063	      0.336485	      0.060986	      0.158750	      0.050993
      0.547536	     -1.998206	    -55.479774	    131.316475	   -167.566190	      0.426938	      0.181306	      0.928165	      0.116194	      0.931647	      0.111279	      0.576335	      0.061398	      0.324063	      0.061221	      0.154707	      0.051103
      0.549145	     -2.088918	    -57.243093	    131.044061	   -171.173564	      0.414279	      0.181193	      0.934008	      0.116094	      0.937193	      0.111181	      0.547092	      0.061747	      0.312342	      0.061459	      0.150813	      0.051215
